<?xml version="1.0" encoding="utf-8"?>
<!-- Generator: Adobe Illustrator 24.1.2, SVG Export Plug-In . SVG Version: 6.00 Build 0)  -->
<svg version="1.1" id="圖層_1" xmlns="http://www.w3.org/2000/svg" xmlns:xlink="http://www.w3.org/1999/xlink" x="0px" y="0px"
	 viewBox="0 0 1366 768" style="enable-background:new 0 0 1366 768;" xml:space="preserve">
<style type="text/css">
	.st0{fill:url(#africa_1_);stroke:#000000;stroke-miterlimit:10;}
	.st1{fill:url(#europ_1_);stroke:#000000;stroke-miterlimit:10;}
	.st2{fill:url(#south_America_1_);stroke:#000000;stroke-miterlimit:10;}
	.st3{fill:url(#north_America_1_);stroke:#000000;stroke-miterlimit:10;}
	.st4{fill:url(#Asia_1_);stroke:#000000;stroke-miterlimit:10;}
	.st5{fill:url(#台灣_1_);stroke:#000000;stroke-width:1.5909;stroke-miterlimit:10;}
	.st6{fill:none;stroke:#000000;stroke-miterlimit:10;}
</style>
<image style="display:none;overflow:visible;enable-background:new    ;" width="1000" height="667" id="Aisha" xlink:href="Owf89cY.png"  transform="matrix(1 0 0 1 183 58)">
</image>
<linearGradient id="africa_1_" gradientUnits="userSpaceOnUse" x1="581.5" y1="477.933" x2="793.5" y2="477.933">
	<stop  offset="1.897363e-07" style="stop-color:#FFFFFF"/>
	<stop  offset="9.849679e-02" style="stop-color:#FBFEFA"/>
	<stop  offset="0.2224" style="stop-color:#EFFAEA"/>
	<stop  offset="0.36" style="stop-color:#DCF3D0"/>
	<stop  offset="0.5074" style="stop-color:#C0EAAC"/>
	<stop  offset="0.6628" style="stop-color:#9EDF7E"/>
	<stop  offset="0.8248" style="stop-color:#73D146"/>
	<stop  offset="0.9894" style="stop-color:#41C004"/>
	<stop  offset="1" style="stop-color:#3EBF00"/>
</linearGradient>
<path id="africa" class="st0" d="M735.5,381.5c0,0-8-1-14,1c-1,0-21-3-19-7c1-1-9,3-9,3l-1,7l-9-4l-4-4l-12-2l-3-3l2-4v-5l-4-2
	l-23,2l-6,3l-5,2l-10-1l-4,5l-9,6v10l-13,9l-9,17c0,0,4,15-2,22c0,2,3,8,3,8l7,7l7,10l13,8c0,0,7-6,17-2c3,2,8-6,17-5c3,0,6,7,6,7
	h10c0,0,6,3-1,16c0,3,10,13,10,13s10,20,1,28c-2,3-2,14-2,14s8,10,10,28c1,4,10,17,8,25c1,3,15-3,22,0c2,1,23-20,23-22s0-7,0-7l9-5
	l-1-12c0,0,6-12,13-11c2,0,6-7,6-7v-14c0,0-9-6,0-25c1-2,20-17,20-17l9-14l5-13l-22,3l-5-6l-6-7l-5-3l-6-11l-3-9l-9-16l-2-4l3-2l1-5
	l-2-4L735.5,381.5z"/>
<linearGradient id="europ_1_" gradientUnits="userSpaceOnUse" x1="604.7001" y1="286.45" x2="788.9" y2="286.45">
	<stop  offset="1.897363e-07" style="stop-color:#FFFFFF"/>
	<stop  offset="9.849679e-02" style="stop-color:#FAFBFC"/>
	<stop  offset="0.2224" style="stop-color:#EAF0F3"/>
	<stop  offset="0.36" style="stop-color:#D0DFE4"/>
	<stop  offset="0.5074" style="stop-color:#ACC6CF"/>
	<stop  offset="0.6628" style="stop-color:#7EA6B4"/>
	<stop  offset="0.8248" style="stop-color:#467E93"/>
	<stop  offset="0.9894" style="stop-color:#04516D"/>
	<stop  offset="1" style="stop-color:#004E6A"/>
</linearGradient>
<path id="europ" class="st1" d="M785.8,322.9l3.1-13.3v-9.2v-14.8v-11.2v-10.7v-15.8V233l-6.6-13.8l-2.6-4.1h-4.6l-7.7,2.6l-6.6,1
	c0,0-4.6-2-5.6,0s-4.1,7.7-4.1,7.7H747c0,0,1.5-5.1,0-6.1s-6.6-1.5-6.6-1.5v9.2c-2.6-0.5-7.1-4.1-7.1-4.1l-6.1-2.6l-11.7-6.1
	l-11.2-6.1l-8.7-2l-7.9,5.1l-4.5,3.1l-7.5,6.6l-6.1,7.7l-2,6.6l-4.6,7.1l-6.1,7.7l-6.9,5l-4.6,6.1v5.1h2.4v4.6l0.1,2.9l0.1,2.4
	c0,0,3.7,1.1,4.9,0.4c1.1-0.8,2.9-1.3,3.4-1.7c0.5-0.4,3.3-3.2,3.3-3.2h2.4c0,0,1.5,4.5,1.5,5s0.9,1.5,1,2.6c0.1,1,1.1,4.5,1.4,5.1
	c0.3,0.6,1.7,3.1,1.9,3.4c0.3,0.4,1.9,1.3,3.1,0.5s3.7-2.2,3.7-2.2s2-2,2.2-2.7c0.1-0.6,0.5-4.7,0.5-4.7l0.8-4.9c0,0,1.7-2.3,2-2.3
	c0.4,0,1-1.9,1.4-2.3s0.6-4.3,0.6-4.3s-3.6-0.4-3.8-1c-0.3-0.6-0.9-2.8-0.8-3.4c0.1-0.6,0.4-4.1,0.4-4.1s2-2.7,2.9-3.8
	s5.7-5.9,5.7-5.9l1.7-5.6l2.4-3.2l4.5,0.6l0.5,3.2c0,0-2.4,4.7-2.9,5.4c-0.5,0.6-2.9,3.3-3.4,4.2s-1.3,5.4-1.3,6s0.3,4.7,0.3,5.4
	s2.2,2.7,2.2,2.7l5.1,1.5l7.8-2.3c0,0,3.8-0.4,4.5,0c0.6,0.4,2.7,2.2,2.7,2.6s-1.9,2.4-2.6,2.6s-6.8-1.8-8.4-1
	c-1.7,0.8-5.7,3.3-5.7,3.3s-2.4,2-2.4,2.7s0.1,5.6,0.1,5.6l-1.4,3.4c0,0,1.5,4.5,2.2,5c0.6,0.5,2.9,2.8,2.9,2.8l-2.9,1.1l-7.3-0.1
	l-2.1-1.4c0,0-2.3-0.4-2.9,0c-0.6,0.4-4.5,3.2-5.1,3.4s-3.7,1.3-3.7,1.3l-3.8-1.4c0,0-3.2-0.4-3.6-0.4s1-1.1,1.3-1.8
	c0.3-0.6,0.5-5,0.5-5s-2.2-0.3-2.6,0c-0.4,0.3-1.5-2.9-1.5-2.9l-0.5-4.5l-5.1,1.5l-1.9,4l1.4,5.5l1.7,3.2l-2.6,2.2
	c0,0-6,1.4-6.8,1.7c-0.8,0.3-1.3,2.3-2.4,2.9c-1.1,0.6-2.4,4.9-2.4,4.9l-3.4,2.3l-2.6-1.8c0,0,1.5-3.7,1.5-4.2s-3.7-3.4-3.7-3.4
	s-2.6-2.7-2.6-3.3s-0.8-2.9-0.8-2.9l-1.7-3.8c0,0-2.3-2.6-3.1-2.4c-0.8,0.1-0.8-2.7,0-3.4c0.8-0.8,0.5-4.3,0.5-4.3l-3.4,0.4
	c0,0,0.5-2.9,0.5-3.2s-5.6-0.6-5.9,0c-0.3,0.6-2.8,4.7-2.8,4.7s1.1,2.7,1.4,3.2s1.3,4.3,1.3,4.3s-3.2,1.3-3.6,1.4s-2.1,0.3-3.4,0.9
	s-1.1,3.4-1.1,3.4h-2.2l-2.3,0.1l0.8,4.1l0.6,2.9c0,0-1.1,0.8-1.4,1c-0.3,0.3-0.9,1.5-0.9,1.5l1.9,1.8c0,0,2.7,0.8,3.1,0.8
	s3.2-1.4,3.7-1.5s3.8-1.1,3.8-1.1l1.9,1.4l2.8,2.2l-1.4,1.7c0,0-2.3,2.2-2.6,2.6s1.4,0.6,2,0.6s4.6,0.9,5,0.6s4.6-1.5,4.6-1.5
	l4.3,0.9l-1.3,1.8l-5,0.3l-0.1,1.9c0,0-3.1,1.8-3.7,1.9s-2.2-0.3-2.2,0.8c0,1,1.4,3.2,3.1,3.8c1.7,0.6,4.9,2,4.9,2.7s0.8,5,0.8,5
	s0,4.7-0.3,5.4s-0.1,2.7-0.1,2.7h-8.3l-5.6-1.9l-4.9,0.6l-2.2,1.3l-1.4,2.4l1.8,1.3l-0.8,2.4c0,0-0.1,1.5-0.3,2.4
	c-0.1,0.9-1.1,4-1.1,4.6s-1.4,2.8-1.1,3.3c0.3,0.5,1,2.9,2,3.6c1,0.6,4.1,3.3,5.4,4.2c1.3,0.9,3.8,2.6,3.8,2.6l4.5-1.4
	c0,0,3.6-0.5,4.7-1c1.1-0.5,4.1-2.3,4.9-2.8c0.8-0.5,2.7-4.1,2.7-4.1l-0.8-3.2l1.9-3.8l3.3-1.8l3.6-4l1.4-4.5l4.6-0.6l4.9,0.1
	c0,0,4-1.8,4.6-2c0.6-0.3,2.9-1,3.3-0.8c0.4,0.3,3.1,3.8,3.1,3.8s3.6,4.1,3.8,4.6c0.3,0.5,2.6,1.5,3.3,1.9c0.8,0.4,4.1,2.2,4.1,2.2
	s2.4,3.1,2.6,3.4c0.1,0.4,1,0,1.3,0.6s1.3,3.2,1.4,3.8c0.1,0.6-1.1,2.9-1.1,2.9s2.2-0.5,2.6-0.9s2.3-3.2,2.3-3.2l-0.6-2.6v-1.8
	l2.8,0.9l0.4-1.5l-0.8-1.3c0,0-2.6-1.4-3-1.7s-5.3-2-5.7-2.6c-0.4-0.5-3.3-3.6-3.3-3.6l-1.4-2.3l-3.1-3.2l-1-3.1c0,0,3.3-1,3.7-0.8
	c0.4,0.3,2.6,1.8,3.3,2.8c0.8,1,2.7,2,3.7,2.8s3.8,1.9,3.8,1.9s0.3,0.6,2,1.9s2.8,2.4,3.3,3.1c0.5,0.6,1.8,3.1,1.8,3.6
	s0.1,2.9,0.3,3.4c0.1,0.5,1.7,2.2,1.7,2.2l2.8,2.6c0,0,0.4,2.4,0.5,2.8s1.6,3,1.6,3l1.5,1.6l3.3-0.4l1.4-2.9l1-1.3l0.9-2.2
	c0,0-2.2-1.1-2.6-1.4c-0.4-0.3-1.8-2.4-1.8-2.4l0.6-2.2c0,0,1.8,0,2.3-0.4s1.3-2.3,2.2-2.6c0.9-0.3,2.8-0.5,2.8-0.5l2.2,1.5h2.6
	c0,0,2-1.5,2.8-1.5s2.3-0.3,2-1.3s-4.1-3.8-4.1-3.8l2.8-7.7l4.3-6.9l4.9-2l5.1,6.9l6.9,1c0,0,5.6,0.5,6.4,0.8
	c0.8,0.3,5.6,1.3,5.6,1.3h6.4c0,0,5.4,1.5,6.4,2.3s4.9,1.8,5.4,2.8s3.8,2.8,5.1,3.1c1.3,0.3,4.3-0.8,4.3-0.8l-3.6-5.4L769,331
	l0.8-3.3l5.4-4.9l5.1-0.8h3.6L785.8,322.9z"/>
<linearGradient id="south_America_1_" gradientUnits="userSpaceOnUse" x1="387.5" y1="563.7502" x2="530.9001" y2="563.7502">
	<stop  offset="1.897363e-07" style="stop-color:#FFFFFF"/>
	<stop  offset="9.849679e-02" style="stop-color:#FFFEFA"/>
	<stop  offset="0.2224" style="stop-color:#FDFCEA"/>
	<stop  offset="0.36" style="stop-color:#FBF9D0"/>
	<stop  offset="0.5074" style="stop-color:#F8F4AC"/>
	<stop  offset="0.6628" style="stop-color:#F4EE7E"/>
	<stop  offset="0.8248" style="stop-color:#EFE646"/>
	<stop  offset="0.9894" style="stop-color:#E9DE04"/>
	<stop  offset="1" style="stop-color:#E9DD00"/>
</linearGradient>
<path id="south_America" class="st2" d="M442.5,449.5l2.2,0.7l1.4,2.2h2l2.4,2.9l2.4,1.4l3.6,2.7l2.9,2.7c0,0,1.7,2,2.2,2
	s5.3,0.2,5.3,0.2h3.6l4.6,1.9l3.2,3.2l3.1,5.3l3.2,6L479,486h6.8h4.3h4.9l3.4,2.7l3.2,3.4c0,0,1.7-1.2,2.2-1.2s7,1.2,7.7,1.2
	c0.7,0,5.8,0,5.8,0l4.9,4.4c0,0,0.9,3.6,6.3,3.6c0.9,0,2.4,7.1,2.4,7.1l-2.4,6.1l-5.1,5.1l-1,4.4h-3.7v16.5l-4.9,13.8l-4.1,3.1
	l-7.5,1.4l-7.3,4.8l-3.6,3.6l-1.2,9l-3.3,9.5l-4.9,2.7l-4.4,10.2l-4.6,1.5h-4.1l-0.9,3.7l1.2,3.9l-3.2,5.3l-10,1.2l-1,7.7l-4.1,2.7
	l0.5,3.4l-2.7,4.1l-1,4.4l-1.9,2.9l-2,1.7l-0.3,2.7l1.5,1.5l4.9,3.7l-1.4,4.4l-2.7,3.4l-1.5,3.1l-0.9,2.4l-0.7,3.2l3.7,6.5l1,2.4
	l2,2.7l2.7,2l4.1,1.4l-2.9,4.1l-6.5,1l-7.1-1.9l-2.4-3.7l-3.7-0.5l-3.6-4.9l-4.4-6l-3.7-13.8l2.4-5.3l0.5-1.9l-5.3,0.3l1.9-30.3
	l-1.9-7.5l1.9-6.5l1.7-11.7l0.2-19.4L423,543l-7.7-7l-11.7-7l-9.4-21.1l-3.1-2.9l-3.6-2v-4.9l2.2-3.7l-0.7-3.6l-1.5-1.5v-3.1
	l2.2-4.4l3.1-2.9l1.7-1.2l0.5-2l2.7-1.7l1.2-9.9l-0.5-4.9l-1.5-2.7l-2.7-1.7l-3.1,0.3l0.5-3.1l2.2,0.2l4.1,1.2l1.4,2l0.5,1l1.4-1.9
	l2.2-2.2l1.4-2.4l1.5-1.7l3.4-1.5l4.9-1.7l3.6-1.9l1.2,4.1l2.4-0.9l0.2-2.2l2,0.5l2.9,2.4c0,0,1.9,1.7,2.4,1.7s4.4,0.5,4.4,0.5
	s3.1-0.2,4.1-0.2C438.7,449.4,442.5,449.5,442.5,449.5z"/>
<linearGradient id="north_America_1_" gradientUnits="userSpaceOnUse" x1="189.9" y1="276.05" x2="611.4147" y2="276.05">
	<stop  offset="1.897363e-07" style="stop-color:#FFFFFF"/>
	<stop  offset="9.849679e-02" style="stop-color:#FEFCFA"/>
	<stop  offset="0.2224" style="stop-color:#FBF3EA"/>
	<stop  offset="0.36" style="stop-color:#F7E4D0"/>
	<stop  offset="0.5074" style="stop-color:#F1CFAC"/>
	<stop  offset="0.6628" style="stop-color:#E9B47E"/>
	<stop  offset="0.8248" style="stop-color:#E09346"/>
	<stop  offset="0.9894" style="stop-color:#D56D04"/>
	<stop  offset="1" style="stop-color:#D46A00"/>
</linearGradient>
<path id="north_America" class="st3" d="M389.7,459.6l1.4-2.9l-0.7-2.7h-4.3l-2.6-1.5l-3.1-4.9l-1-4.1l1.9-5.4V434l-7.1-2.6h-7.5
	l-1-3.2l2.6-3.1l0.9-4.4l1.2-4.8c0,0,2.2,1.4,2.2,0s-0.2-2.7-0.2-2.7h-3.9l-2.7,1.2l-3.1,0.3l-3.4,4.1l-1.2,4.3l-4.6,0.9
	c0,0-2.7-0.2-3.2-0.2s-4.1-1.7-4.1-1.7l-5.1-6v-5.4l-1.4-5.6l1.4-6.5l1.5-6l2.2-2.6l11.4-4.8l4.9,1l4.3,1l2,0.3l-0.3-3.7l2.7-0.9
	c0,0,2-0.9,2.6-0.9c0.5,0,3.4-0.9,3.9,0s4.1,2.6,4.6,2.6s2.7,0.5,2.7,0.5s1.5,3.1,1.7,3.7c0.2,0.7,1.4,6.1,1.4,6.1l3.4,5.3l3.4,0.2
	l1.5-3.4l-1-5.8c0,0-0.9-5.5-0.9-6.1s-0.7-6.3-0.7-6.3l8.3-7l6.5-3.9l3.9-5.3v-4.4l0.9-2.6l3.4-3.2c0,0,1.9-3.6,2.4-4.3
	c0.5-0.7,2.6-3.7,2.6-3.7l2-2c0,0,5.1,0.2,5.6,0s4.6-0.9,4.6-0.9l-1.7-5.1l2.9-3.4l3.7-2.6h4.9v-7v-3.2l-1.4-1.9l-5.3,1.2l-2,3.1
	l-2.9,2.4c0,0-7,1-7.7,1.4s-6.1,1.9-6.1,1.9l-2.9,4.3l-4.8,0.9c0,0-3.6,1-3.7,1.5c-0.2,0.5-4.1,3.7-4.1,3.7l-5.3,0.9l-3.1-1l3.6-1.7
	l3.7-0.9l4.8-2.9l0.5-1.7l6-0.3l2.4-1.7l4.1-2.9l5.8-2.6l5.1-3.9c0,0,4.4-2.7,4.9-2.9c0.5-0.2,5.1-4.9,5.1-4.9l4.1-3.6l4.3-3.2h4.3
	c0,0,6-0.3,6.5,0s6.3,0.7,6.3,0.7l3.9-0.8l4.3-1.4l3.9-1.7l4.1-4.3c0,0,0.2-3.7,0-4.3c-0.2-0.5-2.2-2-2.4-2.7
	c-0.2-0.7-2.4-3.9-2.4-3.9l-4.3-1.9l-2.9-3.2l-1.4-2.4l1-3.4l-3.9-15.8l-0.9-1l-3.1,3.9l-3.4,3.4c0,0-3.2,1.7-4.1,1.9
	c-0.9,0.2-3.6-2.7-3.6-2.7s0.2-2,0.2-3.1s0.2-4.3,0.3-4.8c0.2-0.5-0.2-4.8-0.2-4.8l-4.3-2.4l-1.5-4.3l-6.3-1l-4.8-1.2l-3.2,2.9
	l-0.2,6.3c0,0-2,6-2.2,6.6c-0.2,0.7-2.2,3.6-2.2,3.6l-0.9,2.7l2.2,6.1l-1.5,6.8c0,0-4.4,1.5-5.1,2s-3.7,1.9-3.7,1.9l-1.5,4.1
	l1.4,9.5c0,0-1.5,2.4-2,2.2c-0.5-0.2-5.3-0.5-5.3-0.5l-2.4-5.6l1-4.6l0.9-6.8L404,279c0,0-5.8-1.5-6-2.2s-5.6-6.5-5.6-6.5
	s-2.2-2.7-3.2-2.6c-1,0.2-4.8,0.9-4.8,0.9l-1.2-4.8l-0.2-4.3l-2.6-0.9l0.7-4.1l2.2-4.9l2.9-4.3l2.9-3.7l3.7-2l2.7-2.4l3.2-0.9
	l1.4-3.2l3.9-1.9h6.6l2.4,2.9l3.1,1.7l4.4-3.2l2.9,1.5l3.6-0.3l-1.4-2.6L420,223l2-3.6h5.6l2.6-2.6l2.7-3.6l0.3-4.6l5.1-5.8l4.1-3.6
	c0,0,4.3,0.9,4.8,1.2s2.6,4.6,2.6,4.6l2.6,3.7l1.4,3.9l0.2,6l-1.9,1c0,0-1.7,2.6-2,3.1s-2.9,1.5-3.1,2.9s0,2.2-0.5,2.2
	s-4.8-0.7-4.8-0.7l-3.9,0.9c0,0-2.4,1.7-2.4,2.2s0.2,3.1,2.4,3.4c2.2,0.3,7.1,0.9,7.1,0.9s1.5,0.3,2,0.5s3.4,4.8,3.4,4.8
	s0.7,3.9,1.2,4.8c0.5,0.9,5.1,2,6.8,3.4c1.7,1.4,4.9,1.7,4.9,1.7l0.9-3.4c0,0,2.2-0.2,2.9-0.7s3.1-3.1,3.1-3.1l0.3-3.4
	c0,0-2.2-3.6-2.6-4.3c-0.3-0.7-2.4-5.4-2.4-5.4s1.9-2.9,2.4-2.7s2.6,4.3,2.6,4.8s0,3.1,1,3.1s4.4,1,4.3-1c-0.2-2-0.2-3.1-0.2-3.1
	s2.9-0.9,3.2-1.4s2.6-2.9,2.6-2.9s0.9-1.5,0-2s-2.9-2.2-3.4-2.4s-4.6-3.7-4.6-3.7s-1-3.9-1.5-4.1s-1.5-4.1-1.5-4.1l2.7-2.7l-1.5-7.8
	l-2-4.4c0,0-3.6-3.1-4.1-3.4c-0.5-0.3-2.4-3.1-2.4-3.1l-3.2-5.4c0,0,0-5.6-0.3-6.3s-1.5-4.6-1.5-4.6l-0.3-4.8c0,0,0.2-1.7,0.5-2.2
	s3.2-6.8,3.2-6.8s2.4-3.6,3.2-4.1s3.6-2,3.6-2s5.3-5.4,5.8-5.6c0.5-0.2,4.1-3.6,4.1-3.6l5.3,2.9l2.9,3.4l-3.2,2.6l-0.9,3.9l2.6,1.2
	l-1.4,3.6l4.1,2.9c0,0,7.5-0.2,8-0.2s5.3,1,6,1.7s3.7,5.6,3.7,5.6v5.6c0,0-0.5,8,0,9.9s1.5,4.4,1,5.1c-0.5,0.7-3.7,6.1-3.7,6.1
	l0.5,4.3c0,0,3.9,0.7,3.4,1.2s-2.4,2.2-2.9,2.6c-0.5,0.3-2.4,3.2-2.4,4.8s2.4,4.1,2.4,4.1l6.8-0.7c0,0-2.9,3.2-3.4,4.3
	c-0.5,1-5.8,5.1-5.8,5.1s-1.5,7.5-1.5,8s-0.3,7.8-0.3,7.8l2.2,9.4c0,0,2.4,10.6,2.4,11.1s4.1,3.4,5.4,3.2c1.4-0.2,3.7,1,4.6,1.5
	c0.9,0.5,6.1-0.2,6.5-0.9c0.3-0.7,2.4-4.3,2.4-5.1c0-0.9,0.5-3.1,0.9-4.3c0.3-1.2,1.5-6,2.6-7.3c1-1.4,6.8-6.8,6.8-6.8l7.3-2.2
	l6.5-2.2l5.3-6l14.3-3.6l8-3.1l4.8-5.3l2.4-3.4l1.4-14.3l-1-2.9c0,0,3.1-0.7,3.2-1.5c0.2-0.9,1.7-2.7,1.7-2.7l-2.4-1.9
	c0,0-1-2.2-0.3-2.6s2.4-2.9,3.6-3.2c1.2-0.3,3.6-3.9,3.6-3.9s-0.2-4.8-0.7-4.8s-4.3-3.6-4.3-3.6l3.2-1.9l3.6,2.2l1.2-4.1l-0.7-2.6
	c0,0-2.4-2-2.4-2.9s-0.2-3.4,0-4.1s1.5-4.6,1.5-4.6s2-3.4,2.4-4.1c0.3-0.7,2-4.1,2-4.1s1.4-1.7,2-2.6s5.6-5.3,5.6-5.3l5.1-4.1
	c0,0,1.2-1.2,1.4-1.7s-1.7-4.9-1.7-4.9s-2.6-1-3.1-1s-4.4,0.5-4.9,0.9s-3.6,2.2-3.6,2.2l-2.6-1.2c0,0-2.4-2.9-2.2-3.4
	s0.9-1.5,0.9-1.5l-2-0.9l-2.6-1.2l1.5-1.4l6.3-1.2l0.9-1.7l-3.1-4.1h-3.1l-2-3.4l-1.4-2.6l-3.4-2.9c0,0-3.7-2-4.3-2.2
	s-4.8-1.2-5.3-1.2s-5.6,0-5.6,0s-2.7,1.4-3.2,1.9s-1.2,1.4-2,1.9c-0.9,0.5-4.4,1.5-4.4,1.5s-2-0.5-3.2,0s-4.1,3.7-4.1,3.7
	s-2.7,0.7-3.4,0.7s-2.6,0-3.9,0s-2.4-0.2-4.1-0.2c-1.7,0-5.3-0.2-5.3-0.2h-2.2c0,0-3.2-0.3-3.7-0.3s-6.3-4.8-6.3-4.8l-2.4-4.3
	l-3.1-3.7c0,0-4.4-2.9-4.9-2.9s-7.1-1.7-7.7-1.7c-0.5,0-4.8,0-5.3,0s-6.5,0-7.3,0s-3.2,0-3.2,0h-4.3l-4.6,1.5l-2,1.5l-3.9,0.3
	c0,0-4.1,0.7-4.6,0.7s-6.8,1-7.3,1.4c-0.5,0.3-1.9,1.7-2.6,1.9c-0.7,0.2-3.7,0-4.3,0.7c-0.5,0.7-0.2,3.2-0.2,3.2s-2,1.2-3.1,1.7
	c-1,0.5-2.7,2.4-2.7,2.4l-7.5,1.7l-4.9,0.9l-3.2,2l-4.4,0.2l-4.1-0.3l-4.3,2.2l-3.2,1.7l-3.2-1h-3.6h-4.1l-5.4,0.2l-3.7,2l-3.4,1.4
	c0,0-4.9,0.3-5.4,0.5s-3.7,0.9-4.6,1c-0.9,0.2-6.5,0.9-6.8,1.4s-1.9,2.6-2.4,2.6s-4.8,1.2-4.8,1.2l-1.9,1.7l-0.3,2.2l2.6,1.2
	c0,0,1.2,3.2,1.2,3.7s3.6,5.4,3.6,5.4s0.3,3.1,1.2,3.1c0.9,0,2.6,2.2,2.6,2.2l-1,4.1c0,0,2,0.3,2.7,0.7c0.7,0.3,3.9,0.5,5.8,0.2
	s8.3-1.7,8.3-1.7l7.1-0.3l5.8-0.3l6-0.2c0,0,0.5,1.2-0.5,1.9s-2.4,2.2-2.4,2.2s0.7,1.7,1.2,1.7s4.3-0.5,4.4,0
	c0.2,0.5,4.4,4.9,4.4,4.9l0.7,3.4l-4.3,0.9c0,0-4.3-0.9-4.8-1c-0.5-0.2-2.6-1.7-3.7-1.7s-2-0.3-3.1-0.2s-2.6,1.5-2.6,1.5
	s-2.7-0.5-4.4-0.9c-1.7-0.3-3.6-2.2-4.3-2.4s-3.6-0.2-4.8,0.3c-1.2,0.5-4.8,1.4-4.8,1.4s-2,0.2-2.7,0.2s-2.6,0-3.9-0.2
	c-1.4-0.2-17.2,2.9-18.6,2.2s-6.8,0-7.1,1.4c-0.3,1.4-1.4,6.1-1.4,6.1s0,2.4,0,4.4s-0.7,7.5-0.7,7.5l-2,4.1c0,0-4.1-5.8-5.1-6.1
	s-8.2-4.4-8.2-4.4l-3.1-2.7l-4.1,2.4v-7.5l-8.5,1.4l-9.5,1.7c0,0-4.4,1-5.8,1.7s-6.1,0.3-7.1-1.4s-5.8-6.5-6.5-7.8
	c-0.7-1.4-3.1-4.1-3.1-4.1l-6.1-3.1c0,0-5.1-3.1-5.8-4.4c-0.7-1.4-5.1-5.8-5.1-5.8l-5.1-5.8c0,0-1-1.7-2.7-1.7s-8.5-0.3-10.2,1
	c-1.7,1.4-7.8,5.4-7.8,5.4s-1.4,0.3-4.4,1.4c-3.1,1-5.8,3.1-7.1,3.7c-1.4,0.7-6.8,1.4-6.8,1.4s-2,1-2.7,3.1c-0.7,2,0,4.1,0,4.1
	l2,5.1l-2.3,3.4l4.7,3.7c0,0,0.7,2-0.3,2.4c-1,0.3-4.4,0.3-4.4,0.3l-2.8-2.7c0,0-0.7-1-2.4-1.4c-1.7-0.3-5.8,0.7-6.8,0.7
	s-2.4,0-3.4,0.7s-3.4,1.7-3.4,3.4s0,4.8,0,4.8s-1.4,2,0,3.4s5.8,2.7,6.8,2.7s7.1,0,7.1,0l-0.3,2l-2.4,3.1l-3.7,1l-4.1,3.1
	c0,0-5.1,2-6.1,2.7s-5.4,2.4-5.4,2.4s-3.4,1.4-3.4,2.4s-2.4,5.4-2.4,5.4v1.7l2,2.7l1.7,0.7l1.4,2l0.3,2.4l2.4,3.7l0.7,4.1l3.1,1.4
	l4.1,0.7c0,0-0.7,6.5-1.7,7.1c-1,0.7-6.1,1.7-7.5,2.4s-6.5,4.8-6.5,4.8l-2.4,2.7c0,0,5.4,1,6.8,1c1.4,0,5.8-1,9.2-3.4
	s4.1-3.1,5.4-3.7c1.4-0.7,4.8-3.4,4.8-3.4l2.7-1.4l8.5-3.7l7.5-1.7l8.2-0.3c0,0,5.8,0.7,7.5,1.7s5.1,4.8,6.5,6.8
	c1.4,2,6.1,8.5,6.1,8.5l2.7,10.6l2.4,6.5l2.4,7.1l1.4,5.4c0,0,3.1,10.2,3.4,11.9c0.3,1.7,2.7,18.4,2.7,18.4l-2,7.1l-0.3,9.2
	l-5.1,8.5l-1.7,15l2.4,6.1l3.1,11.9c0,0,5.4,4.8,6.8,5.5s4.4,4.8,4.4,4.8l3.1,14l2.4,5.8c0,0-1,3.7,0.3,5.4c1.4,1.7,3.7,3.4,4.8,4.8
	c1,1.4,5.1,5.4,5.1,5.4s3.1,1.4,3.4,0s-1.7-6.1-2-7.1s-1.7-3.4-1.7-3.4s1,1.4,1.4,2.4s3.1-1,3.1-1l1.7,4.1c0,0,3.4,3.1,4.4,5.1
	s3.7,8.5,3.7,8.5l-1,5.1l8.9,5.8c0,0,5.8,0,6.8,1.4s7.1,5.1,8.9,5.4c1.7,0.3,10.6,0,10.6,0l3.4,3.4l7.1,3.7l9.5,2.9l3.1,5.6l2.7,4.8
	l6.8,3.1l4.1,1.4L389.7,459.6z"/>
<linearGradient id="Asia_1_" gradientUnits="userSpaceOnUse" x1="712.0001" y1="303.9333" x2="1108.9001" y2="303.9333">
	<stop  offset="1.897363e-07" style="stop-color:#FFFFFF"/>
	<stop  offset="9.849679e-02" style="stop-color:#FAFCFE"/>
	<stop  offset="0.2224" style="stop-color:#EAF4FA"/>
	<stop  offset="0.36" style="stop-color:#D0E6F3"/>
	<stop  offset="0.5074" style="stop-color:#ACD3EA"/>
	<stop  offset="0.6628" style="stop-color:#7EBADF"/>
	<stop  offset="0.8248" style="stop-color:#469CD1"/>
	<stop  offset="0.9894" style="stop-color:#0479C0"/>
	<stop  offset="1" style="stop-color:#0077BF"/>
</linearGradient>
<path id="Asia" class="st4" d="M779.7,215.1l9.2,17.9v36.8v39.8l-3.1,13.3l-1.5,10.2l4.6,7.7v11.7l4.6,6.6v6.3l-9.7-3.9l-6.1-4.4
	v-10.7v-3.8l-4.3,0.8l-10.5-5.9l-12.8-2.3v4.1l4.6,4.1l-1.7,2.4c0,0-3.9,0.5-5.1,0.5c-1.2,0-6.6-0.5-6.6-0.5l-5.8-2.6l-6,0.3
	c0,0-4.4,1.5-4.9,1.9s-5.3,1.7-5.3,1.7l-2,2l-4.3,0.7l-1,1v1.5v4.4v4.7l4.1,2.2l3.2,1.7h6c0,0,3.9-1.7,4.8-1.5
	c0.9,0.2,5.1,0.9,6.5,0.5c1.4-0.3,4.4-1,4.4-0.5s0.5,5.8,0.5,5.8L738,376l-1.2,3.1c0,0,0.3,2.6,0.7,3.4s2.9,7.6,2.9,7.6l-1,2.2
	l2.6,1.5l6,9.2l-0.2,2.4l1.7,1.2h2.4c0,0,0.4,3.7,1,4.6s1.6,4.4,1.6,4.4l2,3.1c0,0,2.9,1.7,3.1,2.2c0.2,0.5,3.7,5.8,3.7,5.8l2.7,3.6
	c0,0,1.2,4.8,1.2,5.4s0.7,5.3,0.7,5.3l1.2,1.7c0,0,0.2,0.3,2,0c1.9-0.3,7.8-1.9,8.5-2.4s7.5-2.7,8.3-3.2s7.1-4.4,7.7-4.4
	c0.5,0,6.1-2.9,6.1-2.9l6-3.7l2.7-4.9l2.4-5.1l3.6-4.6l-2.9-3.4l-4.8-2.2l-2.6-4.6l-0.5-2.7l-3.2,4.4c0,0-2.6,1.7-3.1,1.9
	c-0.5,0.2-6.5,0.3-6.5,0.3l-3.9-2.9c0,0-2.9-2.6-3.2-3.6s-2.2-4.9-2.2-4.9l-4.4-4.1v-3.4l4.1-0.7l3.7,1.9l3.4,5.6
	c0,0,3.6,0.9,4.6,1.5c1,0.7,5.3,2,5.3,2l4.8-0.3l1.9-0.9l1.7,3.6l2.7,1c0,0,3.1,0.2,4.1,0.2s4.9,0.2,5.8,0.2s6.1,0.9,6.1,0.9h7.8
	h2.9l1.9,3.7l3.4,1.9l1.4,2.6l4.3,0.9l-3.1,1.5c0,0,2,2.7,3.1,3.2c1,0.5,6.3,1.4,6.3,1.4l2.2-2l1.4,4.3v6.3l2.6,5.1
	c0,0,3.4,7,3.4,7.5s2,6.8,2,6.8l4.4,6.8l1.9,5.3l2.2,1.5l4.3-2.9l2.7-3.4l1.4-7.1l-0.9-7.8l0.9-2.7l4.4-1.4l1.7-4.3
	c0,0,3.1-2,3.1-2.6c0-0.5,5.1-6.1,5.1-6.1l3.1-2.6l1.4-4.8l2.4-1.9l4.6,2.2l4.3-2.7c0,0,2.2-0.7,2.4,0s1.2,4.4,1.2,4.4l1,3.1
	c0,0,2.9,0.7,3.4,1.4c0.5,0.7,2.9,4.6,2.9,5.1s0.9,7,0.9,7l2.6,0.7l6.5-2.7l1.4,3.2c0,0,2.2,6,2.4,6.6c0.2,0.7,1.5,10.2,1.5,10.2
	v5.8l0.9,3.2l4.3,5.4l1.7,5.8l2.4,4.8c0,0,3.2,4,4.1,4.1s5.4,1.4,5.4,1.4s-1.9-6.1-1.9-6.6s-1.4-5.6-1.4-5.6l-2.4-3.6l-5.6-4.9
	l-3.6-5.3c0,0-1.7-4.1-1.5-4.6s0.9-5.4,0.9-5.4l1.2-2.4l5.8,2.4c0,0,2.6,1.4,3.2,2.9s4.1,4.6,4.1,4.6l2,1.7v2.9c0,0,5.3-1.2,5.8-2
	c0.5-0.9,5.6-5.8,5.6-5.8l2.6-3.7l-1.2-8.5l-3.9-5.1l-6-5.3l-2.6-5.4l2.4-3.4l4.4-2.9c0,0,4.3-1,4.8-0.2c0.5,0.9,2,3.2,2,3.2
	l1.9-2.7l7-3.4l4.1-2.2l4.4-0.9c0,0,3.2-2.6,4.1-3.7s4.3-7.1,4.3-7.1l2-3.7l1.7-7l0.9-4.1v-5.4c0,0-2.4-4.3-2.6-4.8
	c-0.2-0.5-2.4-3.9-2.4-3.9l-2.6-3.7l-3.6-1.9c0,0-0.5-4.1,0-4.4s2.2-2.2,3.1-2.4c0.9-0.2,4.3-1.5,4.3-1.5l1.9-3.2l-4.6-1l-3.7,0.3
	l-2.6,2.2l-1.7-0.9l-2.9-2.2l-3.4-3.2l4.1-2.9l2.2-1.9l1.7-3.9l1.7-2l1.9,1.4l0.7,4.1c0,0-0.3,3.1-0.3,3.6s2.9,0,3.2-0.9
	s4.1-2.7,4.1-2.7l4.1,0.3l0.9,3.6l-1,3.4c0,0,3.1,1.2,3.7,1c0.7-0.2,2.4,0.2,2.6,1c0.2,0.9,1.5,6.5,1.5,7.3c0,0.9,0,2.9,0,2.9
	l7.7,0.9l3.1,6.3l0.9,4.3c0,0,1.4,4.3,1.9,4.6s4.6,1.4,4.6,1.4l2-5.4c0,0-1-5.6-1-6.1s2.7-3.1,2.7-3.1s1.5-2.2,2.2-1.9
	c0.7,0.3,2.9,0.7,3.1,1.2s0,3.4,0,3.4s4.1,0.7,4.3,0.2c0.2-0.5,1-4.6,1-4.6l4.3-1.4l3.7-0.7l2-0.9l1-3.1l-1-3.2l0.2-4.9l-0.5-3.1
	l1.4-5.1l-1.7-4.1c0,0-3.1-3.4-3.4-4.3s-1.5-4.1-1.5-4.1l2-1.4l2.4,1.5l2.2-0.2l1.2-3.7l3.6-3.1l-1.9-5.1l-4.4,0.7l-4.4-3.1
	l-5.3-2.2l1,9l-2.4,2l0.3,4.3l1.7,5.1l0.5,4.3l0.5,3.2c0,0,0,4.3,0,5.3s-0.2,4.8-0.2,4.8l-3.2,1c0,0-2-3.1-2-1s-2,5.6-2,5.6
	l-2.2,1.9l-4.8,1.5c0,0-2.7,3.1-3.4,3.9c-0.7,0.9-3.2,2.7-3.4,3.2c-0.2,0.5-1,1.5-1,1.5l-2-3.9l-1.5-2.4l1.4-1c0,0-0.3-2-0.3-2.7
	s-0.9-3.2-0.9-3.2l-2.2-4.4l-3.2-4.9l-2-4.1l1.5-4.6l1-6.3l2.6-4.3l2.7-1.4l3.7,1.4l3.4-2.9l4.4-9.5c0,0,0.3-5.4,0.3-6
	c0-0.5,0-7.1,0-7.1l1.9-4.9l-4.1-22.3l-2.9-4.1l-6-2l-2.7,2.7l-3.9-2.4l-6.1-2.7l4.4-10.9l2.2-6.1l1.7-6.1l-0.2-4.4
	c0,0,1.4-1.5,4.8-2.2s8.3-2,8.3-2l5.6-0.3c0,0,2.4-2.2,3.1-2.4s3.7,0.2,4.1,0.9c0.3,0.7,3.7,0.2,4.6-0.3s2.6-2.4,2.6-2.4l-1.4-2.7
	l-1-4.6l1-6.5l1.9-2.9l5.4-1l1.5,3.9l5.4,2.6l2.2,0.9c0,0-0.3,5.3,0,6.1s0.3,7.7,0,8.2s-2.6,4.4-2.7,4.9c-0.2,0.5-1.5,4.4-1.4,5.4
	c0.2,1,2.2,4.8,2.4,6c0.2,1.2,2,9.9,2,9.9s4.3,4.6,5.2,6.1c0.9,1.5,3.9,5.6,3.9,5.6l3.2,4.4l1.4,2c0,0,2.7-2.4,2.7-2.9s0-4.9,0-4.9
	s-0.7-3.1-0.7-3.6s0.3-4.9,0.7-6c0.3-1,0.3-5.1,0.9-5.3s3.1-1.5,3.1-1.5s-0.3-3.6-1-3.7c-0.7-0.2-4.4-2.2-4.1-2.9s2.6-3.4,2.6-3.4
	s-0.2-2.9-1.2-3.7c-1-0.9-4.1-6.1-4.1-6.1s-2,0.7-2.2,0.2s-2.4-7.3-2.4-7.3l-0.5-5.1c0,0,0.3-1.9,1.2-2.7c0.9-0.9,4.9-2.9,4.9-2.9
	l2-2c0,0,2.2-1,2.7-1s4.9,1.9,5.4,2.4s2.7,1.2,2.7,1.2l-0.9-10.6c0,0,0.5-3.4,0.9-4.1s1.7-3.1,2.2-3.6s2.6-4.4,3.1-4.8
	s3.1-1.2,3.7-1.2c0.7,0,2.4-1.2,2.4-1.2l-0.7-3.1l-2.4-4.1l-9.5-5.8l0.5-4.9l1-4.6c0,0-0.7-3.4-1.2-3.6s-2-1.9-2.6-2.2
	c-0.5-0.3-1.2-3.2-1.2-3.2l3.1,2.4l3.6-0.2l1.9-2.2c0,0,0.3-0.5,1.4,0s1.9,1.2,2.9,1.5s6.6,0.5,6.6,0.5v-6.1c0,0-1.9-3.7-2.4-3.9
	s-1.2-3.6-1.2-3.6l-0.5-3.9l-1-1.7l-5.8-2.7l-3.7,2.6c0,0-4.1,0.7-5.4,0.2s-8.9-2.7-8.9-2.7l-7.1,0.7c0,0-6.5-1.9-7-2
	c-0.5-0.2-11.2-1.2-12.8-1c-1.5,0.2-10,2-10,2l-1.2,2l-2.6,1.2c0,0-2.4,2.6-2.4,3.1s-1.4,3.6-1.4,3.6s-4.1-0.3-5.4,0.2
	c-1.4,0.5-4.6,2.7-5.4,3.1c-0.9,0.3-6.1-0.5-6.1-0.5l-2.2-3.7l-3.7-2.6c0,0-5.8-0.5-7.1,0.3s-6.8,3.4-6.8,3.4l-4.9,0.9l-2.4-3.1
	l-5.3,0.2l-2.9-4.1c0,0-7.8,1-8.7,1s-9.4,0.9-9.4,0.9l-7.5,0.2l2.4,3.7l1,2.2l2,5.3l-4.3,1.4l-2.4,1.2c0,0-3.6-0.2-4.4,0.3
	c-0.9,0.5-3.1,1.5-3.1,1.5l-4.4-0.7c0,0,0.3,5.3,0.3,6s-0.7,1.5-0.7,1.5s-4.4-4.1-5.1-4.1s-5.8-3.1-5.8-3.1l0.9-3.2l-4.6-2.4
	l-4.9-2.9c0,0-5.8,0.5-6.3,0.5s-2.4,2.6-2.4,2.6l0.7,2.4c0,0-3.1,1.2-3.7,1.5s-7.5-0.7-7.5-0.7s-0.5-1.9-1-2s-6,0.2-6,0.2l-5.4,1.4
	c0,0-5.6,2.2-6.1,2s-2.4-0.2-3.2,1c-0.9,1.2-3.9,4.4-3.9,4.4l1.5-8l1.9-6.8l0.2-6.5l-7.5-5.6l-5.8-3.1l-5.1,1.5l-6.5-1.5l-4.6-3.7
	c0,0-6.1-0.3-6,0c0.2,0.3,0.2,5.8,0.2,5.8l-0.7,5.4l1.7,2.7l0.5,4.3l-3.2,0.5l-4.3,1.4l-4.4-0.3l-3.4,2.2c0,0-1,4.1-1.5,4.8
	s-2.7,2.6-3.6,3.6c-0.9,1-2.7,5.1-2.7,5.1l0.7,1l2.2,4.4l0.7,1.7c0,0-6.1,1-6.6,1.4c-0.5,0.3-5.6,2.4-5.6,2.4l-0.5,4.3l2.7,2.2
	l-0.5,2.7H812c0,0-4.9,0.5-5.4,0.7S800,185,800,185l-6.5-0.9l-1.5,3.1l1.5,4.3l-1.2,6.5l0.3,5.3l4.1,4.9l2.2,4.1l-2,1.7l-9.7-3.6
	l-8.9-2.2c0,0-4.1-2.7-4.6-2.4s1.4,2.9,2,3.7c0.7,0.9,4.4,3.4,4.4,3.4l2,2.7L779.7,215.1z"/>
<linearGradient id="台灣_1_" gradientUnits="userSpaceOnUse" x1="999.5958" y1="406.8105" x2="1005.5532" y2="406.8105">
	<stop  offset="1.897363e-07" style="stop-color:#FFFFFF"/>
	<stop  offset="9.849679e-02" style="stop-color:#FAFCFE"/>
	<stop  offset="0.2224" style="stop-color:#EAF4FA"/>
	<stop  offset="0.36" style="stop-color:#D0E6F3"/>
	<stop  offset="0.5074" style="stop-color:#ACD3EA"/>
	<stop  offset="0.6628" style="stop-color:#7EBADF"/>
	<stop  offset="0.8248" style="stop-color:#469CD1"/>
	<stop  offset="0.9894" style="stop-color:#0479C0"/>
	<stop  offset="1" style="stop-color:#0077BF"/>
</linearGradient>
<polygon id="台灣" class="st5" points="1005.6,402 1003.5,401.2 1001.9,402.8 1000.8,404.6 999.6,406.7 1000.4,408.9 
	1000.8,410.8 1001.6,412.4 1002.6,412.4 1004.1,409.3 1005.6,406.8 1005.6,404.6 1005.6,403.2 "/>
<path id="印度" class="st6" d="M843.3,406.9l3.3-3.6l4.6,1.4v-3.5l-3.9-5.5v-2.8h1.4h4.1l3.1-6.9l2-3.6l2.3-4.6l2.6-3.8l3.8-1.3
	l4.3,1.8l4.3,6.9l2.3,0.8v5.6c0,0,2.3,3.9,3.1,3.8c0.8-0.2,5.4,1.4,6.6,1.9c1.3,0.5,8.4,1.8,8.4,1.8l5.9,0.8l2.3,2.3
	c0,0,1.5,1.4,1.5,3c0,1.6,1.3,7.1,1.3,7.1l1.3,2v1.7l-2.9-1.4l-3.8,6.7l-5.2,5l-6.1,6.3l-1.7,4.3l-4.4,1.4v10.5l-2.1,8l-6.3,5.4
	l-3.4-4.8l-5.5-9.9l-3.7-10.4l-3-6.1l-1.2-11.5h-7.1l-4.4-2l-1.2-1.5l3.1-1.5l-4.3-0.9L843.3,406.9z"/>
<path id="巴西" class="st6" d="M478.9,470.4l-2.5,3.6l-2,2.6h-4.1h-4.3l-1.8,1.3h-3.3l-3.8,1.6l-2.6-2.9v-4.1l-1.8-3.8l-2.6-1.5
	l-5.6,2.6l-4.6,0.5l-1.8,0.8l1.3,3.6l2,1.5l-1.3,1.8l-3.3,4h-3.6l-3.6-2.5l-3.3-1.6h-3.1v4c0,0,0,4.6,0,5.4s0,5.9,0,5.9l-1,3.3
	l-5.4,2l-4.9,3.6l1.3,5.4h6.4l5.1,1.5l6.9,3.3l3.3,2.3c0,0,2,3.3,2.6,4.1c0.5,0.8,5.1,4.3,5.9,4.3s2.3,1.3,3.8,1.8
	c1.5,0.5,5.6,3.1,5.6,3.1l1.3,7.1h3.3c0,0,3.3,5.4,3.6,6.1c0.3,0.8,1,6.1,1,6.1s0,0.8-0.3,1.5c-0.3,0.8,0.5,4.3,0.5,4.3l5.1,2.3
	l3.1,1.8l2.6,4.9l1.3,6.9l0.5,1.5l-6.6,5.6l-2.3,4.1c0,0,3.8,1,4.6,2c0.8,1,3.3,3.1,3.8,3.8c0.5,0.8,2.3,3.3,2.6,4.1
	s1.9,4.2,1.9,4.2l0.1,1.7l3-8.9l4.9-2.7l4.3-16.9l6.9-7.3l7.3-3.3l5.7-1.8l4.5-7l3.2-8.9v-16.5h3.7l2.2-5.6l5.3-7.4v-6.6l-1.4-3
	l-6.3-3.6l-4.9-4.4l-11.8-1l-3.9,1l-5.3-5l-8.2-2.3L479,486l5.6-5.3L478.9,470.4z"/>
<path id="衣索比亞" class="st6" d="M748,438.3h5.1h5.1l4.3,3.3l2,3.3v3.6l1.8,2.6l2.6,2l4.6,2.6l5.6,1.3l3.8,1.2l-2.3,3.2
	l-5.9,4.1l-4.3,1.8l-5,2c0,0-3.7,2-4.5,2c-0.8,0-4.3-1.3-4.3-1.3l-4.9,1.3l-2.8-3.1h-4.6l-1.5-4.1l-3.6-3.3l-1.8-1.2l1.3-2.9
	l1.8-1.9v-4.2l2.6-4.9l2-2.6l1-4.8H748z"/>
<path id="肯亞" class="st6" d="M742.4,467.1l-1.5,2.8l1.5,4.6l1,3.4l-1.3,4.8v5.1c0,0,4.3,2.8,5.6,3.6c1.3,0.8,5.1,3.3,5.1,3.3
	l1.8,2h2.3l2.5-6.3l4-3.9l-1.7-8.6l-0.8-6.7l-4.3-1.3l-3.1,1.3l-4.6-3.1L742.4,467.1z"/>
<path id="哥倫比亞" class="st6" d="M416,445.4v1.9l-2.2,2.4c0,0-1.1,1.8-1.1,2.2c0,0.4,0.8,3.6,0.8,3.6l0.9,2.2l1.7,2.6l4.1,0.6
	c0,0,2.3,0.6,2.9,1.3c0.6,0.6,5.4,0.9,5.7,1.3c0.4,0.4,1.3,1.1,1.3,1.1l-1.3,4.5c0,0,0.8,5.7,0.8,6.6s0.5,2.6,0.5,2.6l-4.5-0.3h-2.3
	v6.3v6.6l-0.3,3.4l-2.5-3.2l-4.7-0.1l-3.1-0.6l-3.8-4.6l-3.4-2.6l-4.7-0.4l-4.5-2.3l-1.7-2.9l1.2-3.4l2.3-2.3l1.3-3.9l-0.4-3.9
	l-0.5-4.9l-1.5-2.7l-4.4-1.5l-0.9-3l4.5,0.9l3.7,3.5l2.8-3.3l1.9-2.7l1.8-2.2l5.7-2.3l3.6-1.5L416,445.4z"/>
<path id="巴拿馬" class="st6" d="M372.3,447.7c0.6-1,2.8-3.3,2.8-3.3l2.6,3.3c0,0,1.9,1.5,2.3,0.7c0.4-0.8,1.1,0.2,1.1,0.2
	l1.9,2.9l2.7,2.2l4.1,0.3l1.4,1.1c0,0,0.4,2.5,0,2.5c-0.4,0-1.4,2-1.4,2l-4.2-1.6c0,0-2.3-1.3-2.8-1.5c-0.5-0.2-7.5-3.7-7.5-3.7
	L372.3,447.7z"/>
<path id="哥斯大黎加" class="st6" d="M369.3,441l1.8-1.3l2.9-1.4l4.3-1.7l2.7-0.6v1.9c0,0-1.1,4.3-1.2,4.6
	c-0.1,0.2,0.3,3.9,0.4,4.3c0.1,0.4-0.8,1.8-0.8,1.8l-2.8-2.2l-1.5-1.9l-2.8,3.3l-1.4-2.6l-1.3-2.3L369.3,441z"/>
</svg>
