<?xml version="1.0" encoding="iso-8859-1"?>
<!-- Generator: Adobe Illustrator 24.1.2, SVG Export Plug-In . SVG Version: 6.00 Build 0)  -->
<svg version="1.1" id="&#x5716;&#x5C64;_1" xmlns="http://www.w3.org/2000/svg" xmlns:xlink="http://www.w3.org/1999/xlink" x="0px"
	 y="0px" viewBox="0 0 1366 768" style="enable-background:new 0 0 1366 768;" xml:space="preserve">
<image style="overflow:visible;" width="1000" height="667" xlink:href="Owf89cY.png"  transform="matrix(1 0 0 1 183 58)">
</image>
<path style="fill:none;stroke:#000000;stroke-miterlimit:10;" d="M735.5,381.5c0,0-8-1-14,1c-1,0-21-3-19-7c1-1-9,3-9,3l-1,7l-9-4
	l-4-4l-12-2l-3-3l2-4v-5l-4-2l-23,2l-6,3l-5,2l-10-1l-4,5l-9,6v10l-13,9l-9,17c0,0,4,15-2,22c0,2,3,8,3,8l7,7l7,10l13,8
	c0,0,7-6,17-2c3,2,8-6,17-5c3,0,6,7,6,7h10c0,0,6,3-1,16c0,3,10,13,10,13s10,20,1,28c-2,3-2,14-2,14s8,10,10,28c1,4,10,17,8,25
	c1,3,15-3,22,0c2,1,23-20,23-22s0-7,0-7l9-5l-1-12c0,0,6-12,13-11c2,0,6-7,6-7v-14c0,0-9-6,0-25c1-2,20-17,20-17l9-14l5-13l-22,3
	l-5-6l-6-7l-5-3l-6-11l-3-9l-9-16l-2-4l3-2l1-5l-2-4L735.5,381.5z"/>
</svg>
