<svg id="圖層_1" data-name="圖層 1" xmlns="http://www.w3.org/2000/svg" viewBox="0 0 213.27 233.88"><defs><style>.cls-1{fill:none;stroke:#000;stroke-miterlimit:10;}</style></defs><path class="cls-1" d="M735.5,381.5s-8-1-14,1c-1,0-21-3-19-7,1-1-9,3-9,3l-1,7-9-4-4-4-12-2-3-3,2-4v-5l-4-2-23,2-6,3-5,2-10-1-4,5-9,6v10l-13,9-9,17s4,15-2,22c0,2,3,8,3,8l7,7,7,10,13,8a17.07,17.07,0,0,1,17-2c3,2,8-6,17-5,3,0,6,7,6,7h10s6,3-1,16c0,3,10,13,10,13s10,20,1,28c-2,3-2,14-2,14s8,10,10,28c1,4,10,17,8,25,1,3,15-3,22,0,2,1,23-20,23-22v-7l9-5-1-12s6-12,13-11c2,0,6-7,6-7v-14s-9-6,0-25c1-2,20-17,20-17l9-14,5-13-22,3-5-6-6-7-5-3-6-11-3-9-9-16-2-4,3-2,1-5-2-4Z" transform="translate(-581 -360.99)"/></svg>